<svg width="100" height="80" xmlns="http://www.w3.org/2000/svg">

 <g>
  <title>background</title>
  <rect fill="none" id="canvas_background" height="82" width="102" y="-1" x="-1"/>
 </g>
 <g>
  <title>Layer 1</title>
  <path stroke="null" transform="rotate(-0.2889682352542877 51.00102996825704,42.02249908447268) " fill="#999999" id="svg_1" d="m6.400916,18.695968l0.511013,0.687519l38.6099,51.236523c1.305923,1.735167 3.264808,2.815553 5.450809,2.815553c2.186002,0 4.144886,-1.113126 5.450809,-2.815553l38.58151,-51.138306l0.652962,-0.851214c0.482624,-0.818475 0.76652,-1.800645 0.76652,-2.848292c0,-2.848292 -2.100833,-5.172761 -4.712679,-5.172761l0,0l-81.421465,0l0,0c-2.611846,0 -4.712679,2.324468 -4.712679,5.172761c0,1.080387 0.312286,2.095296 0.823299,2.91377z"/>
 </g>
</svg>