<svg width="512" height="512" xmlns="http://www.w3.org/2000/svg">

 <g>
  <title>background</title>
  <rect fill="none" id="canvas_background" height="402" width="582" y="-1" x="-1"/>
 </g>
 <g>
  <title>Layer 1</title>
  <rect stroke="null" id="svg_27" height="530.000027" width="529.28572" y="-15.841519" x="-10.785718" fill-opacity="null" stroke-opacity="null" stroke-width="null" fill="#94d9f8"/>
  <path fill="#94d9f8" id="svg_2" d="m89.7,379.2c8.9,-7.9 29.4,-24 89.3,-52.4l43.5,60.3l15.2,-14.4l-0.2,-0.4l18.8,-17.6l18.4,17.6l-0.1,0.1l15.4,14.6l43.4,-60.1c60.2,28.4 80.1,44.2 89.1,52.2c4,3.5 7.5,9.3 10.7,16.8c24.4,-35 38.7,-77.5 38.7,-123.3c-0.2,-119 -96.8,-215.6 -215.9,-215.6c-119.1,0 -215.7,96.6 -215.7,215.8c0,45.9 14.3,88.4 38.7,123.3l10.7,-16.9z" class="st0"/>
  <path fill="#edd9b4" id="svg_3" d="m256,192.5l0,163.3c15.6,0.1 31.3,-10.2 43.2,-24.8l0,-98.6c0,-26.6 -21.6,-39.9 -43.2,-39.9z" class="st1"/>
  <path fill="#dcc5a1" id="svg_4" d="m212.8,232.5l0,98.5c11.9,14 27.5,24.7 43.2,24.8l0,-163.3c-21.6,0 -43.2,13.3 -43.2,40z" class="st2"/>
  <path fill="#bc9f82" clip-rule="evenodd" fill-rule="evenodd" id="svg_5" d="m299.2,232.5l0,66c-16.4,11.8 -32.1,18.5 -43.2,18.5c-11.1,0 -26.8,-6.7 -43.2,-18.6l0,-66c0,-53.2 86.4,-53.2 86.4,0.1" class="st3"/>
  <path fill="#8b5e3c" clip-rule="evenodd" fill-rule="evenodd" id="svg_6" d="m328.1,47.5c21.3,3.4 33,18 38.1,37.8c13.1,51.5 -14.3,163.2 -109.3,164.6c-49,0.7 -84.3,-11.8 -97.1,-51.4c-12.9,-39.6 -18.1,-103.5 9.8,-139.4c35.1,-45.1 108.9,-45.5 158.5,-11.6" class="st4"/>
  <path fill="#dcc5a1" clip-rule="evenodd" fill-rule="evenodd" id="svg_8" d="m155.9,154.5c-3.7,-3 -7.7,-4.3 -11.3,-3.1c-7.6,2.5 -10.3,15.2 -5.9,28.3c4.2,12.6 13.2,21 20.7,19.5c4.1,23.3 10.5,41.2 13.3,45.3c10.4,15.4 59.9,56.1 83.3,56.1l0,-245.1c-77.6,0 -98.7,50.2 -100.1,99z" class="st5"/>
  <path fill="#edd9b4" clip-rule="evenodd" fill-rule="evenodd" id="svg_9" d="m367,151.4c-3.4,-1.1 -7.3,0 -10.9,2.8c-1.5,-48.7 -22.6,-98.7 -100.1,-98.7l0,245.1c23.4,0 72.9,-40.7 83.3,-56.1c2.8,-4.1 9.2,-22 13.3,-45.2c7.4,1.2 16.2,-7.2 20.3,-19.6c4.3,-13.1 1.7,-25.8 -5.9,-28.3z" class="st6"/>
  <path fill="#ffffff" id="svg_10" d="m256.2,355.3l-43.4,-43.8c-12.5,5.5 -23.7,10.6 -33.8,15.4l43.5,60.3l33.7,-31.9z" class="st7"/>
  <path fill="#ffffff" id="svg_11" d="m289.9,387.2l43.4,-60.1c-10.2,-4.8 -21.5,-10 -34.1,-15.5l-43,43.7l33.7,31.9z" class="st7"/>
  <path fill="#342214" id="svg_13" d="m209.2,160.5c6.3,0 11.5,5.8 11.5,13c0,7.2 -5.1,13 -11.5,13c-6.3,0 -11.5,-5.8 -11.5,-13c0,-7.2 5.2,-13 11.5,-13" class="st8"/>
  <path fill="#342214" id="svg_14" d="m302.4,160.5c6.3,0 11.5,5.8 11.5,13c0,7.2 -5.1,13 -11.5,13c-6.3,0 -11.5,-5.8 -11.5,-13c0,-7.2 5.2,-13 11.5,-13" class="st8"/>
  <path fill="#ffffff" id="svg_15" d="m232.1,243c4.1,9 13.1,15.3 23.7,15.3c10.6,0 19.6,-6.3 23.7,-15.3l-47.4,0z" class="st7"/>
  <path fill="#8b5e3c" clip-rule="evenodd" fill-rule="evenodd" id="svg_16" d="m327,99.1c-25.5,15.7 -55.7,10.2 -44,-3.6c11.8,-13.7 -1.2,-4.2 -24.1,5.9c-23,10 -49.4,8.4 -33.8,-0.1c19,-10.3 -55.2,-17 -68.7,88.9c-21.7,-76.8 15,-141.2 97.9,-144.8c88.6,-3.9 124.5,66.2 100,142.5c1.6,-41.4 -8.4,-68.4 -27.3,-88.8" class="st4"/>
  <polygon fill="none" id="svg_17" points="278.2,487.4 278.3,488.2 278.2,487.4  " class="st9"/>
  <polygon fill="none" id="svg_18" points="233.8,487.4 233.7,488.2 233.8,487.4  " class="st9"/>
  <polygon fill="#be1e2d" id="svg_19" points="264.1,388.6 278.2,487.4 278.2,487.4 264.1,388.6  " class="st10"/>
  <polygon fill="#be1e2d" id="svg_20" points="233.8,487.4 247.9,388.6 247.9,388.6 233.8,487.4  " class="st10"/>
  <path fill="#00aeef" id="svg_21" d="m422.3,379.2c-9,-7.9 -28.9,-23.7 -89.1,-52.2l-43.4,60.1l-15.4,-14.6l-10.4,16.1l0,0l14.1,98.7c32.8,-3.4 63.5,-14.1 90.3,-30.5c0,-10.5 0,-16.9 0,-16.9s0.8,5.9 2,15.6c24.6,-15.4 45.8,-35.7 62.4,-59.5c-3,-7.4 -6.5,-13.3 -10.5,-16.8z" class="st11"/>
  <path fill="#00aeef" id="svg_22" d="m141.4,455.6c1.2,-9.7 2,-15.6 2,-15.6s0,6.3 0,16.9c26.8,16.4 57.5,27.2 90.3,30.5l14.1,-98.7l-10.2,-15.8l-15.2,14.4l-43.4,-60.4c-59.9,28.4 -80.4,44.5 -89.3,52.4c-4,3.5 -7.5,9.4 -10.7,16.8c16.6,23.7 37.8,44 62.4,59.5z" class="st11"/>
  <polygon fill="#ef3f6c" id="svg_23" points="274.5,372.6 274.6,372.4 256.2,354.8 237.4,372.4 237.7,372.8 256.2,355.3  " class="st12"/>
  <path fill="#ef3f6c" id="svg_24" d="m264.1,388.6l0,0l10.4,-16.1l-18.3,-17.3l-18.5,17.6l10.2,15.8l-14.1,98.7c7.3,0.7 14.7,1.1 22.2,1.1c7.5,0 14.9,-0.4 22.2,-1.1l-14.1,-98.7z" class="st12"/>
  <path fill="#ffffff" id="svg_25" d="m141.4,455.6c0.7,0.4 1.4,0.9 2.1,1.3c0,-10.5 0,-16.9 0,-16.9s-0.9,5.9 -2.1,15.6z" class="st7"/>
  <path fill="#ffffff" id="svg_26" d="m368.5,456.8c0.7,-0.4 1.4,-0.9 2.1,-1.3c-1.2,-9.7 -2,-15.6 -2,-15.6s0,6.4 -0.1,16.9z" class="st7"/>
 </g>
</svg>